<svg xmlns="http://www.w3.org/2000/svg" version="1.1" xmlns:xlink="http://www.w3.org/1999/xlink" xmlns:svgjs="http://svgjs.dev/svgjs" width="100" height="125"><svg xmlns="http://www.w3.org/2000/svg" data-name="Layer 1" viewBox="0 0 100 125" x="0px" y="0px"><title>Baby and Toys (Glyph)-SVG</title><path d="M76.75,33.33c0-16.54-12-30-26.74-30s-26.76,13.45-26.76,30c0,12.82,7.21,23.74,17.3,28l-2.94,2.94a3.35,3.35,0,0,0-1,2.68,3.46,3.46,0,0,0,1.49,2.45,21.77,21.77,0,0,0,9.41,3.42l1.6,5a4.85,4.85,0,0,1-.29,3.68,11.67,11.67,0,0,0,0,10.31l1.52,3a3.34,3.34,0,0,0,3,1.85,3.16,3.16,0,0,0,1.49-.37,3.31,3.31,0,0,0,1.48-4.45l-1.51-3a5,5,0,0,1,0-4.33,11.53,11.53,0,0,0,.68-8.72l-1.08-3.25a21.58,21.58,0,0,0,7.46-3.08A3.46,3.46,0,0,0,63.37,67a3.35,3.35,0,0,0-1-2.68l-2.94-2.94c10.09-4.3,17.3-15.22,17.3-28Zm-17.16-18A2.52,2.52,0,0,1,63,11.66a34,34,0,0,1,2.52,2.57A30.91,30.91,0,0,1,67.68,17a2.51,2.51,0,1,1-4.09,2.91,26.52,26.52,0,0,0-1.82-2.34c-.66-.71-1.38-1.45-2.18-2.16Zm7.26,10.89a2.53,2.53,0,0,1,1.61-3.17,2.56,2.56,0,0,1,3.2,1.6,27.27,27.27,0,0,1-.6,18.75A28.33,28.33,0,0,1,58.33,57.61a2.53,2.53,0,0,1-3.43-1,2.49,2.49,0,0,1,1-3.39A23.33,23.33,0,0,0,66.37,41.59a22,22,0,0,0,.48-15.33Z"></path><text x="0" y="115" fill="#000000" font-size="5px" font-weight="bold" font-family="'Helvetica Neue', Helvetica, Arial-Unicode, Arial, Sans-serif" svgjs:data="{&quot;leading&quot;:&quot;1.3&quot;}">Created by Wulan Andradurga</text><text x="0" y="120" fill="#000000" font-size="5px" font-weight="bold" font-family="'Helvetica Neue', Helvetica, Arial-Unicode, Arial, Sans-serif" svgjs:data="{&quot;leading&quot;:&quot;1.3&quot;}">from the Noun Project</text></svg><style>@media (prefers-color-scheme: light) { :root { filter: none; } }
@media (prefers-color-scheme: dark) { :root { filter: none; } }
</style></svg>